<svg width="17" height="10" viewBox="0 0 17 10" fill="none" xmlns="http://www.w3.org/2000/svg">
<path d="M8.05321 9.91828C8.26593 9.80351 8.39855 9.58529 8.39855 9.34794V5.65208H15.6961C16.0646 5.65208 16.3636 5.35996 16.3636 5.00002C16.3636 4.64009 16.0646 4.34797 15.6961 4.34797H8.39855V0.652104C8.39855 0.413886 8.26593 0.195664 8.05321 0.081771C7.84048 -0.0338606 7.58059 -0.0260359 7.37498 0.100029L0.311519 4.44795C0.117487 4.56793 0 4.77572 0 5.00002C0 5.22433 0.117487 5.43212 0.311519 5.5521L7.37498 9.90002C7.48357 9.96609 7.60729 10 7.73101 10C7.84137 10 7.95263 9.97218 8.05321 9.91828Z" fill="#2F3C4E"/>
</svg>
