<svg width="16" height="16" viewBox="0 0 16 16" fill="none" xmlns="http://www.w3.org/2000/svg">
<g clip-path="url(#clip0_2579_11943)">
<path d="M9.76221 7.99857L15.7444 13.981C15.9089 14.1457 15.9997 14.3654 16 14.5997C16 14.8341 15.9092 15.054 15.7444 15.2185L15.2202 15.7426C15.0553 15.9076 14.8356 15.998 14.6011 15.998C14.367 15.998 14.1473 15.9076 13.9824 15.7426L8.00026 9.76052L2.01782 15.7426C1.85327 15.9076 1.63343 15.998 1.39902 15.998C1.16488 15.998 0.945041 15.9076 0.780488 15.7426L0.256 15.2185C-0.0853333 14.8771 -0.0853333 14.3219 0.256 13.981L6.23831 7.99857L0.256 2.01639C0.0913171 1.85144 0.000650406 1.63174 0.000650406 1.39746C0.000650406 1.16318 0.0913171 0.943477 0.256 0.778664L0.780358 0.254566C0.944911 0.0896225 1.16488 -0.000914574 1.39889 -0.000914574C1.6333 -0.000914574 1.85314 0.0896225 2.01769 0.254566L8.00013 6.23674L13.9823 0.254566C14.1471 0.0896225 14.3668 -0.000914574 14.601 -0.000914574H14.6012C14.8355 -0.000914574 15.0552 0.0896225 15.22 0.254566L15.7443 0.778664C15.9088 0.943346 15.9996 1.16318 15.9996 1.39746C15.9996 1.63174 15.9088 1.85144 15.7443 2.01626L9.76221 7.99857Z" fill="#596579"/>
</g>
<defs>
<clipPath id="clip0_2579_11943">
<rect width="16" height="16" fill="white" transform="matrix(1 0 0 -1 0 16)"/>
</clipPath>
</defs>
</svg>
