<svg width="18" height="18" viewBox="0 0 18 18" fill="none" xmlns="http://www.w3.org/2000/svg">
<path opacity="0.4" d="M9 18C13.9706 18 18 13.9706 18 9C18 4.02944 13.9706 0 9 0C4.02944 0 0 4.02944 0 9C0 13.9706 4.02944 18 9 18Z" fill="#D0D7E2"/>
<path d="M9.88889 8.99895L11.8176 7.0709C12.0608 6.8278 12.0608 6.42543 11.8176 6.18233C11.5744 5.93922 11.1719 5.93922 10.9287 6.18233L9 8.11037L7.07128 6.18233C6.82809 5.93922 6.42558 5.93922 6.18239 6.18233C5.9392 6.42543 5.9392 6.8278 6.18239 7.0709L8.11111 8.99895L6.18239 10.927C5.9392 11.1701 5.9392 11.5725 6.18239 11.8156C6.30818 11.9413 6.46751 12 6.62683 12C6.78616 12 6.94549 11.9413 7.07128 11.8156L9 9.88753L10.9287 11.8156C11.0545 11.9413 11.2138 12 11.3732 12C11.5325 12 11.6918 11.9413 11.8176 11.8156C12.0608 11.5725 12.0608 11.1701 11.8176 10.927L9.88889 8.99895Z" fill="#D0D7E2"/>
</svg>
